<svg viewBox="20.5 38.558 158.9 123.042" height="30" width="30" xmlns="http://www.w3.org/2000/svg">
    <path d="M173.1 44.4c-7.1-1.9-43.6-11.1-73.1 1.4-34-15.1-73.9-1.9-74.1-1.9-3.8 1.6-5.4 3.3-5.4 9.9v97.4c0 1.4 1.7 8.3 8.7 7.3 8.2-1.2 43.4-4 56.4-3.3.9 0 1 .2 1.2.3.2.7 2.8 6.1 12.8 6.1 8.3 0 12.5-5.9 12.7-6.1.2 0 2.4.2 2.6.2 13.5.5 40.1 1 54.3 2.3 8 .7 10.2-6.1 10.2-9.9V54.7c-.2-5.7-2.3-9.3-6.3-10.3zm-6.8 11.1v86.3c-19.3-5-42.3-6.8-60.9-1.9V55.5c29.1-10.4 52.1-2.8 60.9 0zm-72-.1v83.9c-12.8-4.9-35.1-4-62.7 2.4V55.4c29.5-7.6 47.9-5.9 62.7 0z" fill="#000000"></path>
</svg>